<svg t="1602306840800" class="icon" viewBox="0 0 1024 1024" version="1.1" xmlns="http://www.w3.org/2000/svg" p-id="4436" width="200" height="200"><path d="M1014.685492 409.723675h-491.934597c0 51.189864 0 153.467213-0.358329 204.657078h285.076355c-10.903441 51.138675-49.654168 122.753295-104.376133 158.842149-0.05119-0.05119-0.10238 0.307139-0.20476 0.255949-72.740797 48.016093-168.772983 58.919534-240.080464 44.586372-111.747474-22.165211-200.15237-103.198767-236.087655-206.141584 0.204759-0.15357 0.358329-1.586886 0.511899-1.689265C204.759458 546.349423 204.759458 460.862349 227.282998 409.723675c28.922273-94.035781 120.040232-179.829994 231.890086-203.326142 90.042971-19.093819 191.603662 1.586886 266.289674 71.461051 9.930834-9.726074 137.444786-134.219824 147.017291-144.355418C617.247385-97.619071 208.701077-16.278377 55.796952 282.056153l-0.307139 0.563088a499.971406 499.971406 0 0 0 0.511899 458.865945l-0.511899 0.409519a521.11282 521.11282 0 0 0 331.710321 264.39565c154.081492 40.439993 350.292242 12.797466 481.696624-106.0654l0.15357 0.15357c111.337955-100.229755 180.649031-271.101522 145.635164-490.70604" fill="#006d75" p-id="4437" data-spm-anchor-id="a313x.7781069.0.i2" class="selected"></path></svg>